D:\school\WTK\thesis\model\3dpredictsim\Results\batch_windlass\Pog_s1_tmt_aCst_d05_k1000_WL10_ig24_act_TTC_GRF.mot
nRows=25
nColumns=19

name D:\school\WTK\thesis\model\3dpredictsim\Results\batch_windlass\Pog_s1_tmt_aCst_d05_k1000_WL10_ig24_act_TTC_GRF.mot
datacolumns 19
datarows 25
range 0.0000000000 0.2829867174
endheader
time 	ground_force_vx	ground_force_vy	ground_force_vz	ground_force_px	ground_force_py	ground_force_pz	1_ground_force_vx	1_ground_force_vy	1_ground_force_vz	1_ground_force_px	1_ground_force_py	1_ground_force_pz	ground_torque_x	ground_torque_y	ground_torque_z	1_ground_torque_x	1_ground_torque_y	1_ground_torque_z
        0.0000000000	      -77.2150190001	       58.8600344573	       13.0136869813	        0.1516334194	        0.0000000000	        0.0640557001	       89.0178252161	      375.3603702951	       -1.8225511450	       -0.3720927386	        0.0000000000	       -0.0323729844	        0.0000000000	        0.0000000000	        0.0000000000	        0.0000000000	        0.0000000000	        0.0000000000	
        0.0117911132	     -157.5737677816	      158.1209614231	       36.1213881407	        0.1668417408	        0.0000000000	        0.0637810480	       54.0473650242	      272.8516162350	      -11.5700389699	       -0.3618751845	        0.0000000000	       -0.0277124190	        0.0000000000	        0.0000000000	        0.0000000000	        0.0000000000	        0.0000000000	        0.0000000000	
        0.0235822265	      -79.7342892793	      424.5660051428	        3.4312438291	        0.1825896344	        0.0000000000	        0.0644084978	       33.7306200565	      208.6891025746	      -18.6151899568	       -0.3527997964	        0.0000000000	       -0.0231881874	        0.0000000000	        0.0000000000	        0.0000000000	        0.0000000000	        0.0000000000	        0.0000000000	
        0.0353733397	      -96.0948018068	      700.2869013351	      -19.0938929589	        0.1924024041	        0.0000000000	        0.0644798279	       31.7764719850	      174.0901296900	      -18.2917651591	       -0.3527860466	        0.0000000000	       -0.0233215697	        0.0000000000	        0.0000000000	        0.0000000000	        0.0000000000	        0.0000000000	        0.0000000000	
        0.0471644529	     -146.9764299709	      890.8226908890	      -23.4503374229	        0.2051811141	        0.0000000000	        0.0628554172	       23.7655282563	      125.3061242938	      -18.9189104966	       -0.3525704325	        0.0000000000	       -0.0235177010	        0.0000000000	        0.0000000000	        0.0000000000	        0.0000000000	        0.0000000000	        0.0000000000	
        0.0589555661	     -163.8997296863	      942.9256555047	      -22.4066608474	        0.2155690572	        0.0000000000	        0.0609508920	        5.5242919068	       68.2202113775	      -16.0463876619	       -0.3532593391	        0.0000000000	       -0.0238233894	        0.0000000000	        0.0000000000	        0.0000000000	        0.0000000000	        0.0000000000	        0.0000000000	
        0.0707466794	     -147.5077636591	      893.7214468316	      -21.0745788006	        0.2199012665	        0.0000000000	        0.0598538657	       -5.6732946586	       10.5083730935	       -2.3824824106	       -0.3569447242	        0.0000000000	       -0.0229169742	        0.0000000000	        0.0000000000	        0.0000000000	        0.0000000000	        0.0000000000	        0.0000000000	
        0.0825377926	     -125.3160776066	      824.8247564103	      -19.7894437201	        0.2226027230	        0.0000000000	        0.0592658723	       -2.4264387979	        2.0348964060	        0.1390018275	        0.0000000000	        0.0000000000	        0.0000000000	        0.0000000000	        0.0000000000	        0.0000000000	        0.0000000000	        0.0000000000	        0.0000000000	
        0.0943289058	     -109.7299393613	      772.7024239974	      -19.3828239054	        0.2257243079	        0.0000000000	        0.0588256246	       -8.0026036815	        5.7578518278	        0.6018533635	        0.0000000000	        0.0000000000	        0.0000000000	        0.0000000000	        0.0000000000	        0.0000000000	        0.0000000000	        0.0000000000	        0.0000000000	
        0.1061200190	      -96.8034038904	      736.3285897332	      -20.0291746477	        0.2287482186	        0.0000000000	        0.0584792098	       -6.7789607007	        4.2876487743	        0.5674808873	        0.0000000000	        0.0000000000	        0.0000000000	        0.0000000000	        0.0000000000	        0.0000000000	        0.0000000000	        0.0000000000	        0.0000000000	
        0.1179111323	      -83.8755483002	      706.5156237915	      -20.9049426705	        0.2315433324	        0.0000000000	        0.0582431895	       -4.9208743093	        2.8194639758	        0.4349199738	        0.0000000000	        0.0000000000	        0.0000000000	        0.0000000000	        0.0000000000	        0.0000000000	        0.0000000000	        0.0000000000	        0.0000000000	
        0.1297022455	      -71.3716427102	      681.0001862521	      -21.5625251212	        0.2354052165	        0.0000000000	        0.0579355849	       -3.4593126792	        1.8263581754	        0.3214043645	        0.0000000000	        0.0000000000	        0.0000000000	        0.0000000000	        0.0000000000	        0.0000000000	        0.0000000000	        0.0000000000	        0.0000000000	
        0.1414933587	      -61.9543901413	      660.4356762299	      -21.3535965350	        0.2405204410	        0.0000000000	        0.0574618948	       -2.8281949388	        1.4133773001	        0.2544285287	        0.0000000000	        0.0000000000	        0.0000000000	        0.0000000000	        0.0000000000	        0.0000000000	        0.0000000000	        0.0000000000	        0.0000000000	
        0.1532844719	      -54.6225364374	      644.1767621633	      -21.4686186117	        0.2463804106	        0.0000000000	        0.0568364326	       -2.1151445644	        1.0147846096	        0.1834004720	        0.0000000000	        0.0000000000	        0.0000000000	        0.0000000000	        0.0000000000	        0.0000000000	        0.0000000000	        0.0000000000	        0.0000000000	
        0.1650755852	      -48.7500187116	      630.4782101173	      -21.5998865173	        0.2526222509	        0.0000000000	        0.0561060840	       -1.5349373282	        0.7132037511	        0.1274886807	        0.0000000000	        0.0000000000	        0.0000000000	        0.0000000000	        0.0000000000	        0.0000000000	        0.0000000000	        0.0000000000	        0.0000000000	
        0.1768666984	      -43.8096073575	      618.0449621124	      -21.4246589463	        0.2589156403	        0.0000000000	        0.0553259901	       -1.1435572993	        0.5180688456	        0.0904374978	        0.0000000000	        0.0000000000	        0.0000000000	        0.0000000000	        0.0000000000	        0.0000000000	        0.0000000000	        0.0000000000	        0.0000000000	
        0.1886578116	      -39.3043265874	      606.9250925581	      -20.8084271766	        0.2651225747	        0.0000000000	        0.0545276554	       -0.8976790164	        0.3982736496	        0.0666446738	        0.0000000000	        0.0000000000	        0.0000000000	        0.0000000000	        0.0000000000	        0.0000000000	        0.0000000000	        0.0000000000	        0.0000000000	
        0.2004489248	      -36.1515895565	      598.2352236452	      -20.0660702829	        0.2711242982	        0.0000000000	        0.0537232587	       -0.7480345217	        0.3258864339	        0.0512114868	        0.0000000000	        0.0000000000	        0.0000000000	        0.0000000000	        0.0000000000	        0.0000000000	        0.0000000000	        0.0000000000	        0.0000000000	
        0.2122400381	      -32.8830185398	      590.8888778724	      -19.4347777285	        0.2767959768	        0.0000000000	        0.0529402747	       -0.6667410713	        0.2856480653	        0.0415995928	        0.0000000000	        0.0000000000	        0.0000000000	        0.0000000000	        0.0000000000	        0.0000000000	        0.0000000000	        0.0000000000	        0.0000000000	
        0.2240311513	      -29.3338943362	      583.3813647834	      -18.7760506379	        0.2821672702	        0.0000000000	        0.0521814624	       -0.6418358979	        0.2705677579	        0.0362053834	        0.0000000000	        0.0000000000	        0.0000000000	        0.0000000000	        0.0000000000	        0.0000000000	        0.0000000000	        0.0000000000	        0.0000000000	
        0.2358222645	      -25.7817936992	      576.4133400653	      -18.4190605201	        0.2873398148	        0.0000000000	        0.0514272805	       -0.6617211041	        0.2746176653	        0.0336113776	        0.0000000000	        0.0000000000	        0.0000000000	        0.0000000000	        0.0000000000	        0.0000000000	        0.0000000000	        0.0000000000	        0.0000000000	
        0.2476133777	      -22.3305349284	      569.7787048240	      -18.3644587935	        0.2923254667	        0.0000000000	        0.0506740091	       -0.7177454240	        0.2935359246	        0.0328137571	        0.0000000000	        0.0000000000	        0.0000000000	        0.0000000000	        0.0000000000	        0.0000000000	        0.0000000000	        0.0000000000	        0.0000000000	
        0.2594044910	      -19.0401477284	      563.4720907216	      -18.5393378341	        0.2971132956	        0.0000000000	        0.0499248736	       -0.8022598769	        0.3238104847	        0.0331504074	        0.0000000000	        0.0000000000	        0.0000000000	        0.0000000000	        0.0000000000	        0.0000000000	        0.0000000000	        0.0000000000	        0.0000000000	
        0.2711956042	      -15.9728389180	      557.6110929050	      -18.7417867149	        0.3016647182	        0.0000000000	        0.0491914922	       -0.9073883224	        0.3621140425	        0.0341207057	        0.0000000000	        0.0000000000	        0.0000000000	        0.0000000000	        0.0000000000	        0.0000000000	        0.0000000000	        0.0000000000	        0.0000000000	
        0.2829867174	      -13.0675598097	      552.5292055830	      -18.7650783553	        0.3059224011	        0.0000000000	        0.0484893204	       -1.0223128181	        0.4041962559	        0.0350741789	        0.0000000000	        0.0000000000	        0.0000000000	        0.0000000000	        0.0000000000	        0.0000000000	        0.0000000000	        0.0000000000	        0.0000000000	
